<svg width="656" height="960" fill="none" xmlns="http://www.w3.org/2000/svg"><g clip-path="url(#a)"><g clip-path="url(#b)"><rect width="656" height="960" rx="32" fill="#C3FAE8"/><path d="M0 84h-8v1053h539V108c0-13.255-10.745-24-24-24H0Z" fill="#F1F3F5"/><path d="M0 84h-8v1053h539V108c0-13.255-10.745-24-24-24H0Z" stroke="#fff" stroke-width="16"/><path d="M45 142.24h-3.548a2.359 2.359 0 0 1 0-4.717H45m-3.713 2.306h-.004m-13.051-1.942v-1.031a4.599 4.599 0 0 1 4.598-4.598h7.573A4.599 4.599 0 0 1 45 136.856v6.289a4.599 4.599 0 0 1-4.598 4.598h-2.316m-4.723-.107v-5.554m0 5.554 1.734-1.671m-1.734 1.671-1.732-1.671m-2.897-3.883v5.554m0-5.554L27 143.754m1.734-1.672 1.732 1.672" stroke="#212529" stroke-width="1.5" stroke-linecap="round" stroke-linejoin="round"/><path d="M59.29 145v-8.596h-2.898V135.2h7.266v1.204h-2.884V145H59.29Zm4.462 0v-6.944h1.33l.127 1.316a2.737 2.737 0 0 1 1.007-1.078c.44-.271.967-.406 1.583-.406v1.554h-.407c-.41 0-.779.07-1.105.21a1.602 1.602 0 0 0-.77.686c-.187.317-.28.761-.28 1.33V145h-1.484Zm7.17.168c-.587 0-1.072-.098-1.455-.294-.383-.196-.668-.453-.854-.77a2.108 2.108 0 0 1-.28-1.064c0-.672.261-1.204.784-1.596.522-.392 1.27-.588 2.24-.588h1.82v-.126c0-.541-.15-.947-.448-1.218-.29-.271-.668-.406-1.134-.406a1.9 1.9 0 0 0-1.078.308c-.299.196-.48.49-.546.882h-1.484c.047-.504.215-.933.504-1.288a2.837 2.837 0 0 1 1.12-.826 3.763 3.763 0 0 1 1.498-.294c.97 0 1.722.257 2.254.77.532.504.798 1.195.798 2.072V145h-1.288l-.126-1.19c-.196.383-.48.705-.854.966s-.864.392-1.47.392Zm.295-1.204c.401 0 .737-.093 1.008-.28.28-.196.495-.453.644-.77.159-.317.257-.667.294-1.05H71.51c-.588 0-1.008.103-1.26.308a.967.967 0 0 0-.364.77c0 .317.117.569.35.756.243.177.57.266.98.266ZM75.89 145v-6.944h1.316l.112 1.218a2.39 2.39 0 0 1 .938-1.008c.42-.252.9-.378 1.442-.378.84 0 1.498.261 1.974.784.486.523.728 1.302.728 2.338V145h-1.47v-3.836c0-1.344-.55-2.016-1.652-2.016-.55 0-1.008.196-1.372.588-.355.392-.532.952-.532 1.68V145h-1.484Zm10.53.168c-.877 0-1.6-.215-2.17-.644a2.412 2.412 0 0 1-.98-1.708h1.498c.075.317.252.593.532.826.28.224.649.336 1.106.336.448 0 .775-.093.98-.28.205-.187.308-.401.308-.644 0-.355-.145-.593-.434-.714-.28-.131-.672-.247-1.176-.35a9.27 9.27 0 0 1-1.176-.336 2.714 2.714 0 0 1-.966-.588c-.252-.261-.378-.611-.378-1.05 0-.607.233-1.111.7-1.512.467-.411 1.12-.616 1.96-.616.775 0 1.4.187 1.876.56.485.373.77.901.854 1.582h-1.428a1.019 1.019 0 0 0-.42-.7c-.224-.168-.527-.252-.91-.252-.373 0-.663.079-.868.238a.694.694 0 0 0-.308.588c0 .243.14.434.42.574.29.14.667.266 1.134.378.467.103.896.224 1.288.364.401.131.723.327.966.588.243.261.364.644.364 1.148.01.635-.238 1.162-.742 1.582-.495.42-1.171.63-2.03.63Zm6.244 0c-.588 0-1.073-.098-1.456-.294-.383-.196-.667-.453-.854-.77a2.108 2.108 0 0 1-.28-1.064c0-.672.261-1.204.784-1.596.523-.392 1.27-.588 2.24-.588h1.82v-.126c0-.541-.15-.947-.448-1.218-.29-.271-.667-.406-1.134-.406a1.9 1.9 0 0 0-1.078.308c-.299.196-.48.49-.546.882h-1.484c.047-.504.215-.933.504-1.288a2.837 2.837 0 0 1 1.12-.826 3.763 3.763 0 0 1 1.498-.294c.97 0 1.722.257 2.254.77.532.504.798 1.195.798 2.072V145h-1.288l-.126-1.19c-.196.383-.48.705-.854.966-.373.261-.863.392-1.47.392Zm.294-1.204c.401 0 .737-.093 1.008-.28.28-.196.495-.453.644-.77.159-.317.257-.667.294-1.05h-1.652c-.588 0-1.008.103-1.26.308a.967.967 0 0 0-.364.77c0 .317.117.569.35.756.243.177.57.266.98.266Zm7.964 1.204c-.681 0-1.292-.154-1.834-.462a3.373 3.373 0 0 1-1.26-1.274c-.298-.551-.448-1.185-.448-1.904 0-.719.15-1.349.448-1.89a3.34 3.34 0 0 1 1.26-1.288c.542-.308 1.153-.462 1.834-.462.859 0 1.578.224 2.156.672.588.448.966 1.055 1.134 1.82h-1.554a1.457 1.457 0 0 0-.616-.896c-.317-.215-.69-.322-1.12-.322-.364 0-.7.093-1.008.28a1.922 1.922 0 0 0-.742.798c-.186.345-.28.775-.28 1.288s.094.947.28 1.302c.187.345.434.611.742.798.308.187.644.28 1.008.28.43 0 .803-.107 1.12-.322.318-.215.523-.518.616-.91h1.554a3.002 3.002 0 0 1-1.12 1.806c-.588.457-1.311.686-2.17.686Zm-1.134 3.514v-.896h1.428c.57 0 .854-.196.854-.588 0-.364-.284-.546-.854-.546h-.77v-1.722h.952v.882c.504-.009.929.103 1.274.336.355.233.532.593.532 1.078 0 .476-.172.835-.518 1.078-.336.252-.746.378-1.232.378h-1.666Zm8.782-3.514c-.663 0-1.26-.149-1.792-.448a3.402 3.402 0 0 1-1.246-1.274c-.308-.551-.462-1.19-.462-1.918s.154-1.363.462-1.904a3.338 3.338 0 0 1 1.274-1.274 3.482 3.482 0 0 1 1.778-.462c.662 0 1.255.154 1.778.462.532.299.952.723 1.26 1.274.317.541.476 1.176.476 1.904s-.159 1.367-.476 1.918a3.373 3.373 0 0 1-1.26 1.274 3.595 3.595 0 0 1-1.792.448Zm0-1.274c.354 0 .681-.089.98-.266.308-.177.555-.439.742-.784.186-.355.28-.793.28-1.316s-.094-.957-.28-1.302a1.84 1.84 0 0 0-.728-.798 1.89 1.89 0 0 0-.98-.266c-.355 0-.686.089-.994.266a1.947 1.947 0 0 0-.728.798c-.187.345-.28.779-.28 1.302s.093.961.28 1.316c.186.345.429.607.728.784.298.177.625.266.98.266Zm.812-6.594a1.26 1.26 0 0 1-.644-.154 37.426 37.426 0 0 1-.504-.322.822.822 0 0 0-.504-.168c-.346 0-.546.21-.602.63h-.826c.084-.541.252-.938.504-1.19a1.33 1.33 0 0 1 .98-.392c.252 0 .466.056.644.168.177.103.34.21.49.322a.954.954 0 0 0 .532.154.531.531 0 0 0 .392-.154c.112-.103.182-.261.21-.476h.826c-.075.532-.248.929-.518 1.19a1.332 1.332 0 0 1-.98.392Zm7.069 7.868c-.682 0-1.288-.149-1.82-.448a3.295 3.295 0 0 1-1.232-1.274c-.299-.541-.448-1.171-.448-1.89 0-.728.144-1.367.434-1.918.298-.551.709-.98 1.232-1.288.532-.308 1.148-.462 1.848-.462.681 0 1.274.154 1.778.462.504.299.896.7 1.176 1.204.28.504.42 1.059.42 1.666 0 .093-.005.196-.014.308 0 .103-.005.219-.014.35h-5.404c.046.672.266 1.185.658 1.54.401.345.863.518 1.386.518.42 0 .77-.093 1.05-.28.289-.196.504-.457.644-.784h1.484a3.141 3.141 0 0 1-1.12 1.638c-.551.439-1.237.658-2.058.658Zm0-6.062c-.495 0-.934.149-1.316.448-.383.289-.616.728-.7 1.316h3.92c-.028-.541-.22-.971-.574-1.288-.355-.317-.798-.476-1.33-.476Zm7.199 6.062c-.877 0-1.6-.215-2.17-.644a2.413 2.413 0 0 1-.98-1.708h1.498c.075.317.252.593.532.826.28.224.649.336 1.106.336.448 0 .775-.093.98-.28.206-.187.308-.401.308-.644 0-.355-.144-.593-.434-.714-.28-.131-.672-.247-1.176-.35a9.27 9.27 0 0 1-1.176-.336 2.724 2.724 0 0 1-.966-.588c-.252-.261-.378-.611-.378-1.05 0-.607.234-1.111.7-1.512.467-.411 1.12-.616 1.96-.616.775 0 1.4.187 1.876.56.486.373.77.901.854 1.582h-1.428a1.014 1.014 0 0 0-.42-.7c-.224-.168-.527-.252-.91-.252-.373 0-.662.079-.868.238a.694.694 0 0 0-.308.588c0 .243.14.434.42.574.29.14.668.266 1.134.378.467.103.896.224 1.288.364.402.131.724.327.966.588.243.261.364.644.364 1.148.01.635-.238 1.162-.742 1.582-.494.42-1.171.63-2.03.63Z" fill="#343A40"/><path d="m154 137-6 6-6-6" stroke="#212529" stroke-width="1.5" stroke-linecap="round" stroke-linejoin="round"/><path clip-rule="evenodd" d="M467.565 131c-.864 0-1.565.713-1.565 1.59v.936c0 .65.247 1.276.689 1.746l4.846 5.152.002-.003a5.154 5.154 0 0 1 1.462 3.602v4.572c0 .306.32.501.585.357l2.76-1.504a1.31 1.31 0 0 0 .676-1.15v-2.287c0-1.342.519-2.631 1.446-3.587l4.846-5.152c.441-.47.688-1.096.688-1.746v-.936c0-.877-.7-1.59-1.564-1.59h-14.871Z" stroke="#343A40" stroke-width="1.5" stroke-linecap="round" stroke-linejoin="round"/><path d="m49 214-6 6 6 6" stroke="#343A40" stroke-width="1.5" stroke-linecap="round" stroke-linejoin="round"/><path d="m129.364 225 3.612-9.8h1.624l3.584 9.8h-1.568l-.84-2.394h-4.004l-.84 2.394h-1.568Zm2.828-3.57h3.164l-1.582-4.466-1.582 4.466Zm10.709 3.738c-.542 0-1.022-.107-1.442-.322a2.482 2.482 0 0 1-.98-.91l-.154 1.064h-1.33v-10.08h1.484v4.214c.224-.327.532-.616.924-.868s.896-.378 1.512-.378c.672 0 1.264.159 1.778.476a3.31 3.31 0 0 1 1.204 1.302c.298.551.448 1.176.448 1.876s-.15 1.325-.448 1.876a3.34 3.34 0 0 1-1.204 1.288c-.514.308-1.111.462-1.792.462Zm-.252-1.288c.634 0 1.157-.215 1.568-.644.41-.439.616-1.008.616-1.708 0-.457-.094-.863-.28-1.218a2.062 2.062 0 0 0-.77-.826 2.09 2.09 0 0 0-1.134-.308c-.635 0-1.158.219-1.568.658-.402.439-.602 1.003-.602 1.694 0 .7.2 1.269.602 1.708.41.429.933.644 1.568.644Zm4.801 1.12v-6.944h1.33l.126 1.316a2.728 2.728 0 0 1 1.008-1.078c.438-.271.966-.406 1.582-.406v1.554h-.406c-.411 0-.78.07-1.106.21a1.6 1.6 0 0 0-.77.686c-.187.317-.28.761-.28 1.33V225h-1.484Z" fill="#495057"/><rect x="209" y="196" width="105" height="48" rx="24" fill="#fff"/><path d="M250.994 225v-9.8h1.75l3.318 6.524 3.304-6.524h1.75v9.8h-1.484v-7.238l-2.996 5.838h-1.148l-3.01-5.824V225h-1.484Zm13.909.168c-.588 0-1.073-.098-1.456-.294-.382-.196-.667-.453-.854-.77a2.115 2.115 0 0 1-.28-1.064c0-.672.262-1.204.784-1.596.523-.392 1.27-.588 2.24-.588h1.82v-.126c0-.541-.149-.947-.448-1.218-.289-.271-.667-.406-1.134-.406-.41 0-.77.103-1.078.308-.298.196-.48.49-.546.882h-1.484c.047-.504.215-.933.504-1.288a2.84 2.84 0 0 1 1.12-.826 3.766 3.766 0 0 1 1.498-.294c.971 0 1.722.257 2.254.77.532.504.798 1.195.798 2.072V225h-1.288l-.126-1.19c-.196.383-.48.705-.854.966-.373.261-.863.392-1.47.392Zm.294-1.204c.402 0 .738-.093 1.008-.28a1.92 1.92 0 0 0 .644-.77c.159-.317.257-.667.294-1.05h-1.652c-.588 0-1.008.103-1.26.308a.97.97 0 0 0-.364.77.92.92 0 0 0 .35.756c.243.177.57.266.98.266Zm5.515-7.224c-.28 0-.514-.084-.7-.252a.891.891 0 0 1-.266-.658c0-.261.088-.476.266-.644a.977.977 0 0 1 .7-.266.93.93 0 0 1 .686.266.83.83 0 0 1 .28.644.874.874 0 0 1-.28.658c-.178.168-.406.252-.686.252Zm-.742 8.26v-6.944h1.484V225h-1.484Z" fill="#343A40"/><path d="M374.36 225.168c-.915 0-1.643-.257-2.184-.77-.532-.513-.798-1.237-.798-2.17h1.484c0 .467.112.854.336 1.162.233.308.611.462 1.134.462.513 0 .877-.145 1.092-.434.215-.299.322-.677.322-1.134V215.2h1.484v7.084c0 .924-.257 1.638-.77 2.142-.513.495-1.213.742-2.1.742Zm6.859 0c-.84 0-1.503-.261-1.988-.784-.476-.523-.714-1.302-.714-2.338v-3.99h1.484v3.836c0 1.344.55 2.016 1.652 2.016.55 0 1.003-.196 1.358-.588.354-.392.532-.952.532-1.68v-3.584h1.484V225h-1.316l-.112-1.218c-.215.429-.532.77-.952 1.022-.411.243-.887.364-1.428.364Zm5.196-.168v-6.944h1.316l.112 1.218c.214-.429.527-.765.938-1.008.42-.252.9-.378 1.442-.378.84 0 1.498.261 1.974.784.485.523.728 1.302.728 2.338V225h-1.47v-3.836c0-1.344-.551-2.016-1.652-2.016-.551 0-1.008.196-1.372.588-.355.392-.532.952-.532 1.68V225h-1.484Z" fill="#495057"/><path d="m474 214 6 6-6 6" stroke="#343A40" stroke-width="1.5" stroke-linecap="round" stroke-linejoin="round"/><rect x="24" y="268" width="542" height="88" rx="16" fill="#fff"/><rect x="41" y="291" width="42" height="42" rx="21" fill="#FFF5F5"/><rect x="41" y="291" width="42" height="42" rx="21" stroke="#fff" stroke-width="2"/><path clip-rule="evenodd" d="M68.333 303.75c0-.523-.319-.854-.74-.72-.264.083-3.38 2.171-3.016 9.664.06.778.397 1.302.976 1.702.569.392.718.886.663 1.546-.13 1.559-.22 2.174-.308 3.736-.043.788.537 1.361 1.298 1.32.658-.036 1.126-.573 1.127-1.322.004-2.852.004-14.23 0-15.926Z" stroke="#FF6B6B" stroke-width="1.5" stroke-linecap="round" stroke-linejoin="round"/><path d="M61.683 303.375c.065 1.46.136 2.92.195 4.38.038.946-.286 1.76-.995 2.387-.969.857-1.207 1.913-1.076 3.165.241 2.31.418 3.68.583 5.997.066.93-.77 1.697-1.617 1.697-.849 0-1.684-.767-1.618-1.697.165-2.317.341-3.687.583-5.997.13-1.252-.108-2.308-1.077-3.165-.708-.627-1.032-1.441-.994-2.387.058-1.46.13-2.92.195-4.38M58.768 306.916l.01-3.465" stroke="#FF6B6B" stroke-width="1.5" stroke-linecap="round" stroke-linejoin="round"/><path d="m96.368 306.5 4.096-11.2h2.304l4.096 11.2h-2.176l-.896-2.592h-4.368l-.912 2.592h-2.144Zm3.616-4.192h3.248l-1.632-4.656-1.616 4.656Zm7.775 4.192v-11.52h2.048v11.52h-2.048Zm3.64 0v-7.936h1.808l.176 1.072a2.768 2.768 0 0 1 1.008-.912c.427-.235.918-.352 1.472-.352 1.227 0 2.096.475 2.608 1.424a3.102 3.102 0 0 1 1.152-1.04 3.408 3.408 0 0 1 1.6-.384c1.035 0 1.83.309 2.384.928.555.619.832 1.525.832 2.72v4.48h-2.048v-4.288c0-.683-.133-1.205-.4-1.568-.256-.363-.656-.544-1.2-.544-.554 0-1.002.203-1.344.608-.33.405-.496.971-.496 1.696v4.096h-2.048v-4.288c0-.683-.133-1.205-.4-1.568-.266-.363-.677-.544-1.232-.544-.544 0-.986.203-1.328.608-.33.405-.496.971-.496 1.696v4.096h-2.048Zm18.293.192c-.768 0-1.462-.176-2.08-.528a3.964 3.964 0 0 1-1.456-1.456c-.352-.629-.528-1.355-.528-2.176 0-.821.181-1.541.544-2.16a3.934 3.934 0 0 1 1.456-1.472c.618-.352 1.312-.528 2.08-.528.757 0 1.44.176 2.048.528a3.794 3.794 0 0 1 1.456 1.472c.362.619.544 1.339.544 2.16 0 .821-.182 1.547-.544 2.176a3.82 3.82 0 0 1-1.456 1.456 4.102 4.102 0 0 1-2.064.528Zm0-1.776c.533 0 .997-.197 1.392-.592.394-.405.592-1.003.592-1.792 0-.789-.198-1.381-.592-1.776-.395-.405-.854-.608-1.376-.608-.544 0-1.014.203-1.408.608-.384.395-.576.987-.576 1.776s.192 1.387.576 1.792c.394.395.858.592 1.392.592Zm9.283 1.776c-.811 0-1.525-.176-2.144-.528a3.903 3.903 0 0 1-1.472-1.472c-.352-.629-.528-1.349-.528-2.16 0-.811.176-1.531.528-2.16a3.903 3.903 0 0 1 1.472-1.472c.619-.352 1.333-.528 2.144-.528 1.013 0 1.867.267 2.56.8.693.523 1.136 1.248 1.328 2.176h-2.16a1.533 1.533 0 0 0-.64-.896c-.309-.224-.677-.336-1.104-.336-.565 0-1.045.213-1.44.64-.395.427-.592 1.019-.592 1.776 0 .757.197 1.349.592 1.776.395.427.875.64 1.44.64.427 0 .795-.107 1.104-.32.32-.213.533-.517.64-.912h2.16c-.192.896-.635 1.616-1.328 2.16-.693.544-1.547.816-2.56.816Zm-1.44 4.064v-1.184h1.792c.565 0 .848-.192.848-.576 0-.373-.283-.56-.848-.56h-.976v-2h1.28v.912c.363-.011.699.043 1.008.16.32.117.576.299.768.544.203.256.304.581.304.976 0 .576-.208 1.008-.624 1.296-.416.288-.901.432-1.456.432h-2.096Zm10.454-4.064c-.768 0-1.462-.176-2.08-.528a3.964 3.964 0 0 1-1.456-1.456c-.352-.629-.528-1.355-.528-2.176 0-.821.181-1.541.544-2.16a3.934 3.934 0 0 1 1.456-1.472c.618-.352 1.312-.528 2.08-.528.757 0 1.44.176 2.048.528a3.794 3.794 0 0 1 1.456 1.472c.362.619.544 1.339.544 2.16 0 .821-.182 1.547-.544 2.176a3.82 3.82 0 0 1-1.456 1.456 4.102 4.102 0 0 1-2.064.528Zm0-1.776c.533 0 .997-.197 1.392-.592.394-.405.592-1.003.592-1.792 0-.789-.198-1.381-.592-1.776-.395-.405-.854-.608-1.376-.608-.544 0-1.014.203-1.408.608-.384.395-.576.987-.576 1.776s.192 1.387.576 1.792c.394.395.858.592 1.392.592Z" fill="#343A40"/><path d="M100.858 328.668c-.868 0-1.62-.21-2.254-.63-.625-.429-1.106-1.022-1.442-1.778-.336-.765-.504-1.652-.504-2.66 0-1.008.168-1.89.504-2.646.336-.765.817-1.358 1.442-1.778.635-.429 1.386-.644 2.254-.644.868 0 1.615.215 2.24.644.625.42 1.106 1.013 1.442 1.778.336.756.504 1.638.504 2.646s-.168 1.895-.504 2.66c-.336.756-.817 1.349-1.442 1.778-.625.42-1.372.63-2.24.63Zm0-1.036c.569 0 1.078-.159 1.526-.476.457-.327.812-.789 1.064-1.386.261-.607.392-1.33.392-2.17 0-.84-.131-1.559-.392-2.156-.252-.597-.607-1.055-1.064-1.372a2.523 2.523 0 0 0-1.526-.49c-.579 0-1.092.163-1.54.49-.448.317-.803.775-1.064 1.372-.261.597-.392 1.316-.392 2.156 0 .84.13 1.563.392 2.17.261.597.616 1.059 1.064 1.386a2.6 2.6 0 0 0 1.54.476Zm10.323.868v-2.1h-4.97v-.91l4.76-6.79h1.372v6.664h1.456v1.036h-1.456v2.1h-1.162Zm-3.668-3.136h3.724v-5.362l-3.724 5.362Zm7.063 4.466 3.514-12.026h1.162l-3.514 12.026h-1.162Zm9.661-1.162c-.868 0-1.619-.21-2.254-.63-.625-.429-1.106-1.022-1.442-1.778-.336-.765-.504-1.652-.504-2.66 0-1.008.168-1.89.504-2.646.336-.765.817-1.358 1.442-1.778.635-.429 1.386-.644 2.254-.644.868 0 1.615.215 2.24.644.625.42 1.106 1.013 1.442 1.778.336.756.504 1.638.504 2.646s-.168 1.895-.504 2.66c-.336.756-.817 1.349-1.442 1.778-.625.42-1.372.63-2.24.63Zm0-1.036c.569 0 1.078-.159 1.526-.476.457-.327.812-.789 1.064-1.386.261-.607.392-1.33.392-2.17 0-.84-.131-1.559-.392-2.156-.252-.597-.607-1.055-1.064-1.372a2.523 2.523 0 0 0-1.526-.49c-.579 0-1.092.163-1.54.49-.448.317-.803.775-1.064 1.372-.261.597-.392 1.316-.392 2.156 0 .84.131 1.563.392 2.17.261.597.616 1.059 1.064 1.386a2.6 2.6 0 0 0 1.54.476Zm9.413 1.036c-.709 0-1.307-.131-1.792-.392a3.36 3.36 0 0 1-1.176-1.078 5.023 5.023 0 0 1-.644-1.498 7.471 7.471 0 0 1-.196-1.708c0-1.083.149-2.03.448-2.842.299-.821.728-1.461 1.288-1.918.569-.467 1.255-.7 2.058-.7.616 0 1.143.121 1.582.364.439.243.784.569 1.036.98.261.401.425.849.49 1.344h-1.092c-.103-.532-.331-.943-.686-1.232-.355-.289-.803-.434-1.344-.434-.737 0-1.358.35-1.862 1.05-.495.691-.761 1.773-.798 3.248.224-.439.579-.817 1.064-1.134.495-.327 1.087-.49 1.778-.49.56 0 1.083.131 1.568.392.495.261.896.63 1.204 1.106.308.467.462 1.017.462 1.652 0 .551-.135 1.078-.406 1.582a3.235 3.235 0 0 1-1.176 1.232c-.504.317-1.106.476-1.806.476Zm-.084-1.036c.439 0 .831-.093 1.176-.28.345-.187.616-.443.812-.77.196-.336.294-.719.294-1.148 0-.663-.219-1.19-.658-1.582-.429-.401-.971-.602-1.624-.602-.439 0-.831.103-1.176.308a2.258 2.258 0 0 0-.826.798 2.13 2.13 0 0 0-.294 1.092c0 .42.098.798.294 1.134.205.327.481.583.826.77.345.187.737.28 1.176.28Zm4.183 2.198 3.514-12.026h1.162l-3.514 12.026h-1.162Zm5.959-1.33v-.826a36.347 36.347 0 0 0 1.876-1.582 19.234 19.234 0 0 0 1.582-1.596 7.573 7.573 0 0 0 1.092-1.54c.271-.504.406-.989.406-1.456 0-.345-.06-.667-.182-.966a1.456 1.456 0 0 0-.56-.714c-.261-.187-.616-.28-1.064-.28-.429 0-.788.098-1.078.294a1.796 1.796 0 0 0-.658.756c-.14.317-.21.658-.21 1.022h-1.134c0-.644.136-1.195.406-1.652.271-.467.64-.821 1.106-1.064a3.375 3.375 0 0 1 1.582-.364c.868 0 1.578.247 2.128.742.56.485.84 1.213.84 2.184 0 .579-.144 1.153-.434 1.722a8.853 8.853 0 0 1-1.106 1.638 15.161 15.161 0 0 1-1.442 1.47c-.504.457-.975.868-1.414 1.232h4.732v.98h-6.468Zm11.851.168c-.868 0-1.619-.21-2.254-.63-.625-.429-1.106-1.022-1.442-1.778-.336-.765-.504-1.652-.504-2.66 0-1.008.168-1.89.504-2.646.336-.765.817-1.358 1.442-1.778.635-.429 1.386-.644 2.254-.644.868 0 1.615.215 2.24.644.626.42 1.106 1.013 1.442 1.778.336.756.504 1.638.504 2.646s-.168 1.895-.504 2.66c-.336.756-.816 1.349-1.442 1.778-.625.42-1.372.63-2.24.63Zm0-1.036c.57 0 1.078-.159 1.526-.476.458-.327.812-.789 1.064-1.386.262-.607.392-1.33.392-2.17 0-.84-.13-1.559-.392-2.156-.252-.597-.606-1.055-1.064-1.372a2.521 2.521 0 0 0-1.526-.49c-.578 0-1.092.163-1.54.49-.448.317-.802.775-1.064 1.372-.261.597-.392 1.316-.392 2.156 0 .84.131 1.563.392 2.17.262.597.616 1.059 1.064 1.386.448.317.962.476 1.54.476Zm5.594.868v-.826a36.347 36.347 0 0 0 1.876-1.582 19.234 19.234 0 0 0 1.582-1.596 7.573 7.573 0 0 0 1.092-1.54c.271-.504.406-.989.406-1.456 0-.345-.06-.667-.182-.966a1.456 1.456 0 0 0-.56-.714c-.261-.187-.616-.28-1.064-.28-.429 0-.788.098-1.078.294a1.796 1.796 0 0 0-.658.756c-.14.317-.21.658-.21 1.022h-1.134c0-.644.136-1.195.406-1.652.271-.467.64-.821 1.106-1.064a3.375 3.375 0 0 1 1.582-.364c.868 0 1.578.247 2.128.742.56.485.84 1.213.84 2.184 0 .579-.144 1.153-.434 1.722a8.853 8.853 0 0 1-1.106 1.638 15.161 15.161 0 0 1-1.442 1.47c-.504.457-.975.868-1.414 1.232h4.732v.98h-6.468Zm11.218.168c-.625 0-1.19-.112-1.694-.336a2.92 2.92 0 0 1-1.218-1.036c-.298-.457-.457-1.027-.476-1.708h1.19c.01.56.206 1.045.588 1.456.383.401.92.602 1.61.602.691 0 1.209-.191 1.554-.574.355-.383.532-.845.532-1.386 0-.457-.112-.831-.336-1.12a1.89 1.89 0 0 0-.882-.644 3.327 3.327 0 0 0-1.204-.21h-.728v-.994h.728c.635 0 1.13-.145 1.484-.434.364-.289.546-.695.546-1.218 0-.439-.144-.798-.434-1.078-.28-.289-.7-.434-1.26-.434-.541 0-.975.163-1.302.49-.326.317-.508.719-.546 1.204h-1.19a2.955 2.955 0 0 1 .42-1.414 2.629 2.629 0 0 1 1.064-.952c.448-.233.966-.35 1.554-.35.635 0 1.162.112 1.582.336.43.224.752.523.966.896.224.373.336.784.336 1.232 0 .495-.135.947-.406 1.358-.27.401-.676.672-1.218.812a2.59 2.59 0 0 1 1.442.826c.383.429.574.994.574 1.694 0 .541-.126 1.041-.378 1.498a2.694 2.694 0 0 1-1.092 1.078c-.485.271-1.087.406-1.806.406Z" fill="#868E96"/><path d="M471.6 313.064v-1.424h6.512v1.424H471.6ZM482.417 317v-11.2h3.856c.886 0 1.611.149 2.176.448.576.299 1.003.704 1.28 1.216.278.501.416 1.061.416 1.68 0 .693-.186 1.323-.56 1.888-.362.565-.933.971-1.712 1.216l2.384 4.752h-1.968l-2.176-4.512h-2V317h-1.696Zm1.696-5.792h2.064c.768 0 1.328-.187 1.68-.56.363-.373.544-.859.544-1.456s-.176-1.072-.528-1.424c-.352-.363-.922-.544-1.712-.544h-2.048v3.984Zm10.563 7.184v-1.232c-1.046-.117-1.883-.485-2.512-1.104-.63-.619-.95-1.429-.96-2.432h1.792c.01.501.16.944.448 1.328.288.373.698.624 1.232.752v-3.856a3.463 3.463 0 0 1-.272-.08 8.328 8.328 0 0 0-.272-.096c-.864-.288-1.515-.661-1.952-1.12-.427-.459-.64-1.061-.64-1.808-.011-.875.272-1.589.848-2.144.576-.555 1.338-.88 2.288-.976v-1.28h1.088v1.296c.928.107 1.674.443 2.24 1.008.565.565.853 1.275.864 2.128h-1.792a1.756 1.756 0 0 0-.352-.992c-.214-.32-.534-.539-.96-.656v3.424l.256.096c.085.021.17.048.256.08.554.181 1.05.4 1.488.656.437.256.784.592 1.04 1.008.266.416.4.944.4 1.584 0 .533-.128 1.035-.384 1.504-.256.459-.64.843-1.152 1.152-.512.309-1.147.491-1.904.544v1.216h-1.088ZM493.3 308.6c0 .427.122.757.368.992.245.224.581.421 1.008.592v-3.104a1.778 1.778 0 0 0-.992.512c-.256.256-.384.592-.384 1.008Zm4.112 5.488c0-.523-.155-.917-.464-1.184-.31-.277-.704-.507-1.184-.688v3.52c.522-.064.928-.245 1.216-.544a1.53 1.53 0 0 0 .432-1.104Zm7.829 2.912v-9.28l-1.808.416v-1.248l2.48-1.088h1.088V317h-1.76Zm3.312 0v-1.216a50.22 50.22 0 0 0 2.08-1.744 22.85 22.85 0 0 0 1.76-1.728c.522-.576.933-1.136 1.232-1.68.298-.555.448-1.088.448-1.6 0-.341-.059-.661-.176-.96a1.526 1.526 0 0 0-.576-.736c-.267-.192-.624-.288-1.072-.288-.672 0-1.179.213-1.52.64-.331.427-.491.939-.48 1.536h-1.648c.01-.789.176-1.451.496-1.984.33-.533.768-.939 1.312-1.216.554-.277 1.178-.416 1.872-.416 1.056 0 1.898.299 2.528.896.64.587.96 1.408.96 2.464 0 .629-.155 1.253-.464 1.872a8.43 8.43 0 0 1-1.184 1.792c-.48.565-.998 1.099-1.552 1.6-.555.501-1.083.955-1.584 1.36h5.12V317h-7.552Zm12.464.192a4.986 4.986 0 0 1-1.984-.384 3.281 3.281 0 0 1-1.408-1.2c-.352-.533-.539-1.2-.56-2h1.68c.021.597.224 1.104.608 1.52.395.405.949.608 1.664.608.683 0 1.205-.187 1.568-.56.363-.384.544-.859.544-1.424 0-.683-.245-1.189-.736-1.52-.48-.331-1.072-.496-1.776-.496h-.832v-1.408h.848c.629 0 1.136-.149 1.52-.448.395-.299.592-.72.592-1.264 0-.459-.155-.832-.464-1.12-.299-.288-.725-.432-1.28-.432-.576 0-1.029.171-1.36.512-.331.331-.512.747-.544 1.248h-1.68c.021-.651.181-1.216.48-1.696.309-.48.731-.853 1.264-1.12.533-.267 1.147-.4 1.84-.4.747 0 1.371.133 1.872.4.512.256.896.608 1.152 1.056.267.437.4.917.4 1.44 0 .597-.165 1.12-.496 1.568a2.362 2.362 0 0 1-1.328.896c.64.139 1.168.453 1.584.944.416.48.624 1.104.624 1.872a3.49 3.49 0 0 1-.432 1.712c-.288.512-.715.923-1.28 1.232-.565.309-1.259.464-2.08.464Zm4.377 1.696.928-3.776h1.68l-1.472 3.776h-1.136Zm8.253-1.696c-1.013 0-1.888-.24-2.624-.72-.725-.491-1.285-1.168-1.68-2.032-.384-.875-.576-1.888-.576-3.04 0-1.152.192-2.16.576-3.024.395-.875.955-1.552 1.68-2.032.736-.491 1.611-.736 2.624-.736 1.014 0 1.883.245 2.608.736.726.48 1.28 1.157 1.664 2.032.395.864.592 1.872.592 3.024s-.197 2.165-.592 3.04c-.384.864-.938 1.541-1.664 2.032-.725.48-1.594.72-2.608.72Zm0-1.52c.608 0 1.147-.171 1.616-.512.48-.341.854-.832 1.12-1.472.267-.64.4-1.403.4-2.288 0-.885-.133-1.648-.4-2.288-.266-.64-.64-1.131-1.12-1.472a2.678 2.678 0 0 0-1.616-.512c-.618 0-1.162.171-1.632.512-.469.341-.837.832-1.104 1.472-.266.64-.4 1.403-.4 2.288 0 .885.134 1.648.4 2.288.267.64.635 1.131 1.104 1.472.47.341 1.014.512 1.632.512Zm10.735 1.52c-1.014 0-1.888-.24-2.624-.72-.726-.491-1.286-1.168-1.68-2.032-.384-.875-.576-1.888-.576-3.04 0-1.152.192-2.16.576-3.024.394-.875.954-1.552 1.68-2.032.736-.491 1.61-.736 2.624-.736 1.013 0 1.882.245 2.608.736.725.48 1.28 1.157 1.664 2.032.394.864.592 1.872.592 3.024s-.198 2.165-.592 3.04c-.384.864-.939 1.541-1.664 2.032-.726.48-1.595.72-2.608.72Zm0-1.52a2.68 2.68 0 0 0 1.616-.512c.48-.341.853-.832 1.12-1.472.266-.64.4-1.403.4-2.288 0-.885-.134-1.648-.4-2.288-.267-.64-.64-1.131-1.12-1.472a2.68 2.68 0 0 0-1.616-.512c-.619 0-1.163.171-1.632.512-.47.341-.838.832-1.104 1.472-.267.64-.4 1.403-.4 2.288 0 .885.133 1.648.4 2.288.266.64.634 1.131 1.104 1.472a2.702 2.702 0 0 0 1.632.512Z" fill="#E03131"/><rect x="24" y="366" width="542" height="88" rx="16" fill="#fff"/><rect x="41" y="389" width="42" height="42" rx="21" fill="#EBFBEE"/><rect x="41" y="389" width="42" height="42" rx="21" stroke="#fff" stroke-width="2"/><path clip-rule="evenodd" d="M67.035 402.539H56.964c-2.436 0-3.964 1.725-3.964 4.166v6.588c0 2.443 1.52 4.167 3.964 4.167h10.07c2.445 0 3.966-1.724 3.966-4.167v-6.588c0-2.441-1.52-4.166-3.965-4.166Z" stroke="#2B8A3E" stroke-width="1.5" stroke-linecap="round" stroke-linejoin="round"/><path d="M53 407.834h18M57.177 413.17h2.968" stroke="#2B8A3E" stroke-width="1.5" stroke-linecap="round" stroke-linejoin="round"/><path d="M100.912 404.692c-.821 0-1.547-.139-2.176-.416-.63-.288-1.125-.693-1.488-1.216-.363-.533-.55-1.179-.56-1.936h2.16c.021.523.208.965.56 1.328.363.352.859.528 1.488.528.544 0 .976-.128 1.296-.384.32-.267.48-.619.48-1.056 0-.459-.144-.816-.432-1.072-.277-.256-.651-.464-1.12-.624l-1.504-.512c-.864-.299-1.525-.683-1.984-1.152-.448-.469-.672-1.093-.672-1.872-.01-.661.144-1.227.464-1.696.33-.48.779-.848 1.344-1.104.565-.267 1.216-.4 1.952-.4.747 0 1.403.133 1.968.4.576.267 1.024.64 1.344 1.12.331.48.507 1.051.528 1.712h-2.192a1.487 1.487 0 0 0-.464-1.04c-.288-.309-.693-.464-1.216-.464-.448-.011-.827.101-1.136.336-.299.224-.448.555-.448.992 0 .373.117.672.352.896.235.213.555.395.96.544.405.149.869.309 1.392.48a9.468 9.468 0 0 1 1.52.672 3.08 3.08 0 0 1 1.104 1.024c.277.416.416.955.416 1.616 0 .587-.149 1.131-.448 1.632-.299.501-.741.907-1.328 1.216-.587.299-1.307.448-2.16.448Zm7.911 0c-.683 0-1.243-.107-1.68-.32-.437-.224-.763-.517-.976-.88a2.328 2.328 0 0 1-.32-1.2c0-.736.288-1.333.864-1.792.576-.459 1.44-.688 2.592-.688h2.016v-.192c0-.544-.155-.944-.464-1.2-.309-.256-.693-.384-1.152-.384-.416 0-.779.101-1.088.304-.309.192-.501.48-.576.864h-2a2.82 2.82 0 0 1 .576-1.504 3.264 3.264 0 0 1 1.312-.976c.533-.235 1.131-.352 1.792-.352 1.131 0 2.021.283 2.672.848.651.565.976 1.365.976 2.4v4.88h-1.744l-.192-1.28a2.929 2.929 0 0 1-.992 1.056c-.416.277-.955.416-1.616.416Zm.464-1.6c.587 0 1.04-.192 1.36-.576.331-.384.539-.859.624-1.424h-1.744c-.544 0-.933.101-1.168.304a.893.893 0 0 0-.352.72c0 .309.117.549.352.72.235.171.544.256.928.256Zm5.534 1.408v-11.52h2.048v11.52h-2.048Zm6.377.192c-.683 0-1.243-.107-1.68-.32-.437-.224-.763-.517-.976-.88a2.328 2.328 0 0 1-.32-1.2c0-.736.288-1.333.864-1.792.576-.459 1.44-.688 2.592-.688h2.016v-.192c0-.544-.155-.944-.464-1.2-.309-.256-.693-.384-1.152-.384-.416 0-.779.101-1.088.304-.309.192-.501.48-.576.864h-2a2.82 2.82 0 0 1 .576-1.504 3.264 3.264 0 0 1 1.312-.976c.533-.235 1.131-.352 1.792-.352 1.131 0 2.021.283 2.672.848.651.565.976 1.365.976 2.4v4.88h-1.744l-.192-1.28a2.929 2.929 0 0 1-.992 1.056c-.416.277-.955.416-1.616.416Zm.464-1.6c.587 0 1.04-.192 1.36-.576.331-.384.539-.859.624-1.424h-1.744c-.544 0-.933.101-1.168.304a.893.893 0 0 0-.352.72c0 .309.117.549.352.72.235.171.544.256.928.256Zm-.144-7.168v-1.44l3.616-1.952v1.664l-3.616 1.728Zm5.678 8.576v-7.936h1.824l.192 1.488a3.287 3.287 0 0 1 1.168-1.216c.502-.309 1.088-.464 1.76-.464v2.16h-.576c-.448 0-.848.069-1.2.208a1.66 1.66 0 0 0-.832.72c-.192.341-.288.816-.288 1.424v3.616h-2.048Zm6.948-9.168c-.373 0-.683-.112-.928-.336a1.122 1.122 0 0 1-.352-.848c0-.341.117-.619.352-.832.245-.224.555-.336.928-.336s.677.112.912.336c.245.213.368.491.368.832a1.1 1.1 0 0 1-.368.848c-.235.224-.539.336-.912.336Zm-1.024 9.168v-7.936h2.048v7.936h-2.048Zm7.494.192c-.768 0-1.462-.176-2.08-.528a3.964 3.964 0 0 1-1.456-1.456c-.352-.629-.528-1.355-.528-2.176 0-.821.181-1.541.544-2.16a3.934 3.934 0 0 1 1.456-1.472c.618-.352 1.312-.528 2.08-.528.757 0 1.44.176 2.048.528a3.794 3.794 0 0 1 1.456 1.472c.362.619.544 1.339.544 2.16 0 .821-.182 1.547-.544 2.176a3.82 3.82 0 0 1-1.456 1.456 4.102 4.102 0 0 1-2.064.528Zm0-1.776c.533 0 .997-.197 1.392-.592.394-.405.592-1.003.592-1.792 0-.789-.198-1.381-.592-1.776-.395-.405-.854-.608-1.376-.608-.544 0-1.014.203-1.408.608-.384.395-.576.987-.576 1.776s.192 1.387.576 1.792c.394.395.858.592 1.392.592Z" fill="#343A40"/><path d="M100.858 426.668c-.868 0-1.62-.21-2.254-.63-.625-.429-1.106-1.022-1.442-1.778-.336-.765-.504-1.652-.504-2.66 0-1.008.168-1.89.504-2.646.336-.765.817-1.358 1.442-1.778.635-.429 1.386-.644 2.254-.644.868 0 1.615.215 2.24.644.625.42 1.106 1.013 1.442 1.778.336.756.504 1.638.504 2.646s-.168 1.895-.504 2.66c-.336.756-.817 1.349-1.442 1.778-.625.42-1.372.63-2.24.63Zm0-1.036c.569 0 1.078-.159 1.526-.476.457-.327.812-.789 1.064-1.386.261-.607.392-1.33.392-2.17 0-.84-.131-1.559-.392-2.156-.252-.597-.607-1.055-1.064-1.372a2.523 2.523 0 0 0-1.526-.49c-.579 0-1.092.163-1.54.49-.448.317-.803.775-1.064 1.372-.261.597-.392 1.316-.392 2.156 0 .84.13 1.563.392 2.17.261.597.616 1.059 1.064 1.386a2.6 2.6 0 0 0 1.54.476Zm10.323.868v-2.1h-4.97v-.91l4.76-6.79h1.372v6.664h1.456v1.036h-1.456v2.1h-1.162Zm-3.668-3.136h3.724v-5.362l-3.724 5.362Zm7.063 4.466 3.514-12.026h1.162l-3.514 12.026h-1.162Zm9.661-1.162c-.868 0-1.619-.21-2.254-.63-.625-.429-1.106-1.022-1.442-1.778-.336-.765-.504-1.652-.504-2.66 0-1.008.168-1.89.504-2.646.336-.765.817-1.358 1.442-1.778.635-.429 1.386-.644 2.254-.644.868 0 1.615.215 2.24.644.625.42 1.106 1.013 1.442 1.778.336.756.504 1.638.504 2.646s-.168 1.895-.504 2.66c-.336.756-.817 1.349-1.442 1.778-.625.42-1.372.63-2.24.63Zm0-1.036c.569 0 1.078-.159 1.526-.476.457-.327.812-.789 1.064-1.386.261-.607.392-1.33.392-2.17 0-.84-.131-1.559-.392-2.156-.252-.597-.607-1.055-1.064-1.372a2.523 2.523 0 0 0-1.526-.49c-.579 0-1.092.163-1.54.49-.448.317-.803.775-1.064 1.372-.261.597-.392 1.316-.392 2.156 0 .84.131 1.563.392 2.17.261.597.616 1.059 1.064 1.386a2.6 2.6 0 0 0 1.54.476Zm9.413 1.036c-.709 0-1.307-.131-1.792-.392a3.36 3.36 0 0 1-1.176-1.078 5.023 5.023 0 0 1-.644-1.498 7.471 7.471 0 0 1-.196-1.708c0-1.083.149-2.03.448-2.842.299-.821.728-1.461 1.288-1.918.569-.467 1.255-.7 2.058-.7.616 0 1.143.121 1.582.364.439.243.784.569 1.036.98.261.401.425.849.49 1.344h-1.092c-.103-.532-.331-.943-.686-1.232-.355-.289-.803-.434-1.344-.434-.737 0-1.358.35-1.862 1.05-.495.691-.761 1.773-.798 3.248.224-.439.579-.817 1.064-1.134.495-.327 1.087-.49 1.778-.49.56 0 1.083.131 1.568.392.495.261.896.63 1.204 1.106.308.467.462 1.017.462 1.652 0 .551-.135 1.078-.406 1.582a3.235 3.235 0 0 1-1.176 1.232c-.504.317-1.106.476-1.806.476Zm-.084-1.036c.439 0 .831-.093 1.176-.28.345-.187.616-.443.812-.77.196-.336.294-.719.294-1.148 0-.663-.219-1.19-.658-1.582-.429-.401-.971-.602-1.624-.602-.439 0-.831.103-1.176.308a2.258 2.258 0 0 0-.826.798 2.13 2.13 0 0 0-.294 1.092c0 .42.098.798.294 1.134.205.327.481.583.826.77.345.187.737.28 1.176.28Zm4.183 2.198 3.514-12.026h1.162l-3.514 12.026h-1.162Zm5.959-1.33v-.826a36.347 36.347 0 0 0 1.876-1.582 19.234 19.234 0 0 0 1.582-1.596 7.573 7.573 0 0 0 1.092-1.54c.271-.504.406-.989.406-1.456 0-.345-.06-.667-.182-.966a1.456 1.456 0 0 0-.56-.714c-.261-.187-.616-.28-1.064-.28-.429 0-.788.098-1.078.294a1.796 1.796 0 0 0-.658.756c-.14.317-.21.658-.21 1.022h-1.134c0-.644.136-1.195.406-1.652.271-.467.64-.821 1.106-1.064a3.375 3.375 0 0 1 1.582-.364c.868 0 1.578.247 2.128.742.56.485.84 1.213.84 2.184 0 .579-.144 1.153-.434 1.722a8.853 8.853 0 0 1-1.106 1.638 15.161 15.161 0 0 1-1.442 1.47c-.504.457-.975.868-1.414 1.232h4.732v.98h-6.468Zm11.851.168c-.868 0-1.619-.21-2.254-.63-.625-.429-1.106-1.022-1.442-1.778-.336-.765-.504-1.652-.504-2.66 0-1.008.168-1.89.504-2.646.336-.765.817-1.358 1.442-1.778.635-.429 1.386-.644 2.254-.644.868 0 1.615.215 2.24.644.626.42 1.106 1.013 1.442 1.778.336.756.504 1.638.504 2.646s-.168 1.895-.504 2.66c-.336.756-.816 1.349-1.442 1.778-.625.42-1.372.63-2.24.63Zm0-1.036c.57 0 1.078-.159 1.526-.476.458-.327.812-.789 1.064-1.386.262-.607.392-1.33.392-2.17 0-.84-.13-1.559-.392-2.156-.252-.597-.606-1.055-1.064-1.372a2.521 2.521 0 0 0-1.526-.49c-.578 0-1.092.163-1.54.49-.448.317-.802.775-1.064 1.372-.261.597-.392 1.316-.392 2.156 0 .84.131 1.563.392 2.17.262.597.616 1.059 1.064 1.386.448.317.962.476 1.54.476Zm5.594.868v-.826a36.347 36.347 0 0 0 1.876-1.582 19.234 19.234 0 0 0 1.582-1.596 7.573 7.573 0 0 0 1.092-1.54c.271-.504.406-.989.406-1.456 0-.345-.06-.667-.182-.966a1.456 1.456 0 0 0-.56-.714c-.261-.187-.616-.28-1.064-.28-.429 0-.788.098-1.078.294a1.796 1.796 0 0 0-.658.756c-.14.317-.21.658-.21 1.022h-1.134c0-.644.136-1.195.406-1.652.271-.467.64-.821 1.106-1.064a3.375 3.375 0 0 1 1.582-.364c.868 0 1.578.247 2.128.742.56.485.84 1.213.84 2.184 0 .579-.144 1.153-.434 1.722a8.853 8.853 0 0 1-1.106 1.638 15.161 15.161 0 0 1-1.442 1.47c-.504.457-.975.868-1.414 1.232h4.732v.98h-6.468Zm11.218.168c-.625 0-1.19-.112-1.694-.336a2.92 2.92 0 0 1-1.218-1.036c-.298-.457-.457-1.027-.476-1.708h1.19c.01.56.206 1.045.588 1.456.383.401.92.602 1.61.602.691 0 1.209-.191 1.554-.574.355-.383.532-.845.532-1.386 0-.457-.112-.831-.336-1.12a1.89 1.89 0 0 0-.882-.644 3.327 3.327 0 0 0-1.204-.21h-.728v-.994h.728c.635 0 1.13-.145 1.484-.434.364-.289.546-.695.546-1.218 0-.439-.144-.798-.434-1.078-.28-.289-.7-.434-1.26-.434-.541 0-.975.163-1.302.49-.326.317-.508.719-.546 1.204h-1.19a2.955 2.955 0 0 1 .42-1.414 2.629 2.629 0 0 1 1.064-.952c.448-.233.966-.35 1.554-.35.635 0 1.162.112 1.582.336.43.224.752.523.966.896.224.373.336.784.336 1.232 0 .495-.135.947-.406 1.358-.27.401-.676.672-1.218.812a2.59 2.59 0 0 1 1.442.826c.383.429.574.994.574 1.694 0 .541-.126 1.041-.378 1.498a2.694 2.694 0 0 1-1.092 1.078c-.485.271-1.087.406-1.806.406Z" fill="#868E96"/><path d="M450.523 411.064v-1.424h3.024v-2.832h1.472v2.832h3.024v1.424h-3.024v2.848h-1.472v-2.848h-3.024ZM462.761 415v-11.2h3.856c.885 0 1.611.149 2.176.448.576.299 1.003.704 1.28 1.216.277.501.416 1.061.416 1.68 0 .693-.187 1.323-.56 1.888-.363.565-.933.971-1.712 1.216l2.384 4.752h-1.968l-2.176-4.512h-2V415h-1.696Zm1.696-5.792h2.064c.768 0 1.328-.187 1.68-.56.363-.373.544-.859.544-1.456s-.176-1.072-.528-1.424c-.352-.363-.923-.544-1.712-.544h-2.048v3.984Zm10.562 7.184v-1.232c-1.045-.117-1.882-.485-2.512-1.104-.629-.619-.949-1.429-.96-2.432h1.792c.011.501.16.944.448 1.328.288.373.699.624 1.232.752v-3.856a3.594 3.594 0 0 1-.272-.08 7.57 7.57 0 0 0-.272-.096c-.864-.288-1.514-.661-1.952-1.12-.426-.459-.64-1.061-.64-1.808-.01-.875.272-1.589.848-2.144.576-.555 1.339-.88 2.288-.976v-1.28h1.088v1.296c.928.107 1.675.443 2.24 1.008.566.565.854 1.275.864 2.128h-1.792a1.75 1.75 0 0 0-.352-.992c-.213-.32-.533-.539-.96-.656v3.424l.256.096c.086.021.171.048.256.08.555.181 1.051.4 1.488.656a2.94 2.94 0 0 1 1.04 1.008c.267.416.4.944.4 1.584 0 .533-.128 1.035-.384 1.504-.256.459-.64.843-1.152 1.152-.512.309-1.146.491-1.904.544v1.216h-1.088Zm-1.376-9.792c0 .427.123.757.368.992.246.224.582.421 1.008.592v-3.104a1.782 1.782 0 0 0-.992.512c-.256.256-.384.592-.384 1.008Zm4.112 5.488c0-.523-.154-.917-.464-1.184-.309-.277-.704-.507-1.184-.688v3.52c.523-.064.928-.245 1.216-.544a1.53 1.53 0 0 0 .432-1.104Zm6.454 2.912v-1.216a49.57 49.57 0 0 0 2.08-1.744 22.85 22.85 0 0 0 1.76-1.728c.523-.576.933-1.136 1.232-1.68.299-.555.448-1.088.448-1.6 0-.341-.059-.661-.176-.96a1.515 1.515 0 0 0-.576-.736c-.267-.192-.624-.288-1.072-.288-.672 0-1.179.213-1.52.64-.331.427-.491.939-.48 1.536h-1.648c.011-.789.176-1.451.496-1.984a3.27 3.27 0 0 1 1.312-1.216c.555-.277 1.179-.416 1.872-.416 1.056 0 1.899.299 2.528.896.64.587.96 1.408.96 2.464 0 .629-.155 1.253-.464 1.872a8.391 8.391 0 0 1-1.184 1.792 16.85 16.85 0 0 1-1.552 1.6c-.555.501-1.083.955-1.584 1.36h5.12V415h-7.552Zm9.488.096c-.32 0-.587-.101-.8-.304a1.054 1.054 0 0 1-.304-.752c0-.299.101-.549.304-.752.213-.213.48-.32.8-.32.32 0 .581.107.784.32.203.203.304.453.304.752 0 .288-.101.539-.304.752-.203.203-.464.304-.784.304Zm6.265.096c-.789 0-1.472-.139-2.048-.416a3.595 3.595 0 0 1-1.376-1.168 3.86 3.86 0 0 1-.608-1.696h1.664c.107.533.373.976.8 1.328.427.341.955.512 1.584.512.469 0 .875-.112 1.216-.336a2.42 2.42 0 0 0 .8-.928c.192-.384.288-.816.288-1.296 0-.757-.213-1.36-.64-1.808-.427-.459-.965-.688-1.616-.688-.555 0-1.029.133-1.424.4a2.29 2.29 0 0 0-.864.976h-1.616l.96-6.272h6.048v1.488h-4.768l-.576 2.992c.245-.277.581-.507 1.008-.688a3.624 3.624 0 0 1 1.472-.288c.757 0 1.408.176 1.952.528.544.341.96.805 1.248 1.392.299.587.448 1.237.448 1.952 0 .747-.16 1.424-.48 2.032a3.689 3.689 0 0 1-1.376 1.456c-.587.352-1.285.528-2.096.528Zm9.935 0c-1.013 0-1.888-.24-2.624-.72-.725-.491-1.285-1.168-1.68-2.032-.384-.875-.576-1.888-.576-3.04 0-1.152.192-2.16.576-3.024.395-.875.955-1.552 1.68-2.032.736-.491 1.611-.736 2.624-.736 1.014 0 1.883.245 2.608.736.726.48 1.28 1.157 1.664 2.032.395.864.592 1.872.592 3.024s-.197 2.165-.592 3.04c-.384.864-.938 1.541-1.664 2.032-.725.48-1.594.72-2.608.72Zm0-1.52c.608 0 1.147-.171 1.616-.512.48-.341.854-.832 1.12-1.472.267-.64.4-1.403.4-2.288 0-.885-.133-1.648-.4-2.288-.266-.64-.64-1.131-1.12-1.472a2.678 2.678 0 0 0-1.616-.512c-.618 0-1.162.171-1.632.512-.469.341-.837.832-1.104 1.472-.266.64-.4 1.403-.4 2.288 0 .885.134 1.648.4 2.288.267.64.635 1.131 1.104 1.472.47.341 1.014.512 1.632.512Zm10.735 1.52c-1.014 0-1.888-.24-2.624-.72-.726-.491-1.286-1.168-1.68-2.032-.384-.875-.576-1.888-.576-3.04 0-1.152.192-2.16.576-3.024.394-.875.954-1.552 1.68-2.032.736-.491 1.61-.736 2.624-.736 1.013 0 1.882.245 2.608.736.725.48 1.28 1.157 1.664 2.032.394.864.592 1.872.592 3.024s-.198 2.165-.592 3.04c-.384.864-.939 1.541-1.664 2.032-.726.48-1.595.72-2.608.72Zm0-1.52a2.68 2.68 0 0 0 1.616-.512c.48-.341.853-.832 1.12-1.472.266-.64.4-1.403.4-2.288 0-.885-.134-1.648-.4-2.288-.267-.64-.64-1.131-1.12-1.472a2.68 2.68 0 0 0-1.616-.512c-.619 0-1.163.171-1.632.512-.47.341-.838.832-1.104 1.472-.267.64-.4 1.403-.4 2.288 0 .885.133 1.648.4 2.288.266.64.634 1.131 1.104 1.472a2.702 2.702 0 0 0 1.632.512Zm4.762 3.216.928-3.776h1.68l-1.472 3.776h-1.136Zm8.253-1.696c-1.013 0-1.888-.24-2.624-.72-.725-.491-1.285-1.168-1.68-2.032-.384-.875-.576-1.888-.576-3.04 0-1.152.192-2.16.576-3.024.395-.875.955-1.552 1.68-2.032.736-.491 1.611-.736 2.624-.736 1.014 0 1.883.245 2.608.736.726.48 1.28 1.157 1.664 2.032.395.864.592 1.872.592 3.024s-.197 2.165-.592 3.04c-.384.864-.938 1.541-1.664 2.032-.725.48-1.594.72-2.608.72Zm0-1.52c.608 0 1.147-.171 1.616-.512.48-.341.854-.832 1.12-1.472.267-.64.4-1.403.4-2.288 0-.885-.133-1.648-.4-2.288-.266-.64-.64-1.131-1.12-1.472a2.678 2.678 0 0 0-1.616-.512c-.618 0-1.162.171-1.632.512-.469.341-.837.832-1.104 1.472-.266.64-.4 1.403-.4 2.288 0 .885.134 1.648.4 2.288.267.64.635 1.131 1.104 1.472.47.341 1.014.512 1.632.512Zm10.735 1.52c-1.014 0-1.888-.24-2.624-.72-.726-.491-1.286-1.168-1.68-2.032-.384-.875-.576-1.888-.576-3.04 0-1.152.192-2.16.576-3.024.394-.875.954-1.552 1.68-2.032.736-.491 1.61-.736 2.624-.736 1.013 0 1.882.245 2.608.736.725.48 1.28 1.157 1.664 2.032.394.864.592 1.872.592 3.024s-.198 2.165-.592 3.04c-.384.864-.939 1.541-1.664 2.032-.726.48-1.595.72-2.608.72Zm0-1.52a2.68 2.68 0 0 0 1.616-.512c.48-.341.853-.832 1.12-1.472.266-.64.4-1.403.4-2.288 0-.885-.134-1.648-.4-2.288-.267-.64-.64-1.131-1.12-1.472a2.68 2.68 0 0 0-1.616-.512c-.619 0-1.163.171-1.632.512-.47.341-.838.832-1.104 1.472-.267.64-.4 1.403-.4 2.288 0 .885.133 1.648.4 2.288.266.64.634 1.131 1.104 1.472a2.702 2.702 0 0 0 1.632.512Z" fill="#2F9E44"/><rect x="24" y="463" width="542" height="88" rx="16" fill="#fff"/><rect x="41" y="486" width="42" height="42" rx="21" fill="#F8F0FC"/><rect x="41" y="486" width="42" height="42" rx="21" stroke="#fff" stroke-width="2"/><path d="m53 503.565 7.917-3.868a2.544 2.544 0 0 1 2.239 0l7.02 3.43c1.099.536 1.099 2.102 0 2.638l-7.02 3.431a2.55 2.55 0 0 1-2.239 0l-3.278-1.602a.558.558 0 0 0-.803.501v3.579c0 .936.55 1.808 1.42 2.149 2.485.975 4.96.988 7.425.007.865-.343 1.408-1.212 1.408-2.143v-4.403" stroke="#CC5DE8" stroke-width="1.5" stroke-linecap="round" stroke-linejoin="round"/><path d="M53.451 511.495v-4.078c0-.876.639-1.623 1.505-1.759l3.752-.588" stroke="#CC5DE8" stroke-width="1.5" stroke-linecap="round" stroke-linejoin="round"/><path d="M100.016 501.692c-1.088 0-1.963-.304-2.624-.912-.65-.619-.976-1.493-.976-2.624h2.048c.01.523.133.939.368 1.248.235.309.613.464 1.136.464.491 0 .848-.144 1.072-.432.224-.299.336-.688.336-1.168V490.3h2.048v7.968c0 1.099-.309 1.947-.928 2.544-.608.587-1.435.88-2.48.88Zm8.912 0c-.822 0-1.547-.139-2.176-.416-.63-.288-1.126-.693-1.488-1.216-.363-.533-.55-1.179-.56-1.936h2.16c.021.523.208.965.56 1.328.362.352.858.528 1.488.528.544 0 .976-.128 1.296-.384.32-.267.48-.619.48-1.056 0-.459-.144-.816-.432-1.072-.278-.256-.651-.464-1.12-.624l-1.504-.512c-.864-.299-1.526-.683-1.984-1.152-.448-.469-.672-1.093-.672-1.872-.011-.661.144-1.227.464-1.696.33-.48.778-.848 1.344-1.104.565-.267 1.216-.4 1.952-.4.746 0 1.402.133 1.968.4.576.267 1.024.64 1.344 1.12.33.48.506 1.051.528 1.712h-2.192a1.491 1.491 0 0 0-.464-1.04c-.288-.309-.694-.464-1.216-.464-.448-.011-.827.101-1.136.336-.299.224-.448.555-.448.992 0 .373.117.672.352.896.234.213.554.395.96.544.405.149.869.309 1.392.48a9.507 9.507 0 0 1 1.52.672c.458.256.826.597 1.104 1.024.277.416.416.955.416 1.616 0 .587-.15 1.131-.448 1.632-.299.501-.742.907-1.328 1.216-.587.299-1.307.448-2.16.448Zm8.711-.192c-.832 0-1.499-.203-2-.608-.502-.405-.752-1.125-.752-2.16v-3.456h-1.36v-1.712h1.36l.24-2.128h1.808v2.128h2.144v1.712h-2.144v3.472c0 .384.08.651.239.8.171.139.459.208.865.208h.992v1.744h-1.392Zm5.434.192c-.683 0-1.243-.107-1.68-.32-.437-.224-.763-.517-.976-.88a2.328 2.328 0 0 1-.32-1.2c0-.736.288-1.333.864-1.792.576-.459 1.44-.688 2.592-.688h2.016v-.192c0-.544-.155-.944-.464-1.2-.309-.256-.693-.384-1.152-.384-.416 0-.779.101-1.088.304-.309.192-.501.48-.576.864h-2a2.82 2.82 0 0 1 .576-1.504 3.264 3.264 0 0 1 1.312-.976c.533-.235 1.131-.352 1.792-.352 1.131 0 2.021.283 2.672.848.651.565.976 1.365.976 2.4v4.88h-1.744l-.192-1.28a2.929 2.929 0 0 1-.992 1.056c-.416.277-.955.416-1.616.416Zm.464-1.6c.587 0 1.04-.192 1.36-.576.331-.384.539-.859.624-1.424h-1.744c-.544 0-.933.101-1.168.304a.893.893 0 0 0-.352.72c0 .309.117.549.352.72.235.171.544.256.928.256Zm9.422 1.6c-.81 0-1.525-.176-2.144-.528a3.91 3.91 0 0 1-1.472-1.472c-.352-.629-.528-1.349-.528-2.16 0-.811.176-1.531.528-2.16a3.91 3.91 0 0 1 1.472-1.472c.619-.352 1.334-.528 2.144-.528 1.014 0 1.867.267 2.56.8.694.523 1.136 1.248 1.328 2.176h-2.16a1.529 1.529 0 0 0-.64-.896c-.309-.224-.677-.336-1.104-.336-.565 0-1.045.213-1.44.64-.394.427-.592 1.019-.592 1.776 0 .757.198 1.349.592 1.776.395.427.875.64 1.44.64.427 0 .795-.107 1.104-.32.32-.213.534-.517.64-.912h2.16c-.192.896-.634 1.616-1.328 2.16-.693.544-1.546.816-2.56.816Zm5.206-.192v-11.52h2.048v6.8l2.816-3.216h2.432l-3.248 3.616 3.776 4.32h-2.56l-3.216-3.984v3.984h-2.048Z" fill="#343A40"/><path d="M100.858 523.668c-.868 0-1.62-.21-2.254-.63-.625-.429-1.106-1.022-1.442-1.778-.336-.765-.504-1.652-.504-2.66 0-1.008.168-1.89.504-2.646.336-.765.817-1.358 1.442-1.778.635-.429 1.386-.644 2.254-.644.868 0 1.615.215 2.24.644.625.42 1.106 1.013 1.442 1.778.336.756.504 1.638.504 2.646s-.168 1.895-.504 2.66c-.336.756-.817 1.349-1.442 1.778-.625.42-1.372.63-2.24.63Zm0-1.036c.569 0 1.078-.159 1.526-.476.457-.327.812-.789 1.064-1.386.261-.607.392-1.33.392-2.17 0-.84-.131-1.559-.392-2.156-.252-.597-.607-1.055-1.064-1.372a2.523 2.523 0 0 0-1.526-.49c-.579 0-1.092.163-1.54.49-.448.317-.803.775-1.064 1.372-.261.597-.392 1.316-.392 2.156 0 .84.13 1.563.392 2.17.261.597.616 1.059 1.064 1.386a2.6 2.6 0 0 0 1.54.476Zm10.323.868v-2.1h-4.97v-.91l4.76-6.79h1.372v6.664h1.456v1.036h-1.456v2.1h-1.162Zm-3.668-3.136h3.724v-5.362l-3.724 5.362Zm7.063 4.466 3.514-12.026h1.162l-3.514 12.026h-1.162Zm9.661-1.162c-.868 0-1.619-.21-2.254-.63-.625-.429-1.106-1.022-1.442-1.778-.336-.765-.504-1.652-.504-2.66 0-1.008.168-1.89.504-2.646.336-.765.817-1.358 1.442-1.778.635-.429 1.386-.644 2.254-.644.868 0 1.615.215 2.24.644.625.42 1.106 1.013 1.442 1.778.336.756.504 1.638.504 2.646s-.168 1.895-.504 2.66c-.336.756-.817 1.349-1.442 1.778-.625.42-1.372.63-2.24.63Zm0-1.036c.569 0 1.078-.159 1.526-.476.457-.327.812-.789 1.064-1.386.261-.607.392-1.33.392-2.17 0-.84-.131-1.559-.392-2.156-.252-.597-.607-1.055-1.064-1.372a2.523 2.523 0 0 0-1.526-.49c-.579 0-1.092.163-1.54.49-.448.317-.803.775-1.064 1.372-.261.597-.392 1.316-.392 2.156 0 .84.131 1.563.392 2.17.261.597.616 1.059 1.064 1.386a2.6 2.6 0 0 0 1.54.476Zm9.413 1.036c-.709 0-1.307-.131-1.792-.392a3.36 3.36 0 0 1-1.176-1.078 5.023 5.023 0 0 1-.644-1.498 7.471 7.471 0 0 1-.196-1.708c0-1.083.149-2.03.448-2.842.299-.821.728-1.461 1.288-1.918.569-.467 1.255-.7 2.058-.7.616 0 1.143.121 1.582.364.439.243.784.569 1.036.98.261.401.425.849.49 1.344h-1.092c-.103-.532-.331-.943-.686-1.232-.355-.289-.803-.434-1.344-.434-.737 0-1.358.35-1.862 1.05-.495.691-.761 1.773-.798 3.248.224-.439.579-.817 1.064-1.134.495-.327 1.087-.49 1.778-.49.56 0 1.083.131 1.568.392.495.261.896.63 1.204 1.106.308.467.462 1.017.462 1.652 0 .551-.135 1.078-.406 1.582a3.235 3.235 0 0 1-1.176 1.232c-.504.317-1.106.476-1.806.476Zm-.084-1.036c.439 0 .831-.093 1.176-.28.345-.187.616-.443.812-.77.196-.336.294-.719.294-1.148 0-.663-.219-1.19-.658-1.582-.429-.401-.971-.602-1.624-.602-.439 0-.831.103-1.176.308a2.258 2.258 0 0 0-.826.798 2.13 2.13 0 0 0-.294 1.092c0 .42.098.798.294 1.134.205.327.481.583.826.77.345.187.737.28 1.176.28Zm4.183 2.198 3.514-12.026h1.162l-3.514 12.026h-1.162Zm5.959-1.33v-.826a36.347 36.347 0 0 0 1.876-1.582 19.234 19.234 0 0 0 1.582-1.596 7.573 7.573 0 0 0 1.092-1.54c.271-.504.406-.989.406-1.456 0-.345-.06-.667-.182-.966a1.456 1.456 0 0 0-.56-.714c-.261-.187-.616-.28-1.064-.28-.429 0-.788.098-1.078.294a1.796 1.796 0 0 0-.658.756c-.14.317-.21.658-.21 1.022h-1.134c0-.644.136-1.195.406-1.652.271-.467.64-.821 1.106-1.064a3.375 3.375 0 0 1 1.582-.364c.868 0 1.578.247 2.128.742.56.485.84 1.213.84 2.184 0 .579-.144 1.153-.434 1.722a8.853 8.853 0 0 1-1.106 1.638 15.161 15.161 0 0 1-1.442 1.47c-.504.457-.975.868-1.414 1.232h4.732v.98h-6.468Zm11.851.168c-.868 0-1.619-.21-2.254-.63-.625-.429-1.106-1.022-1.442-1.778-.336-.765-.504-1.652-.504-2.66 0-1.008.168-1.89.504-2.646.336-.765.817-1.358 1.442-1.778.635-.429 1.386-.644 2.254-.644.868 0 1.615.215 2.24.644.626.42 1.106 1.013 1.442 1.778.336.756.504 1.638.504 2.646s-.168 1.895-.504 2.66c-.336.756-.816 1.349-1.442 1.778-.625.42-1.372.63-2.24.63Zm0-1.036c.57 0 1.078-.159 1.526-.476.458-.327.812-.789 1.064-1.386.262-.607.392-1.33.392-2.17 0-.84-.13-1.559-.392-2.156-.252-.597-.606-1.055-1.064-1.372a2.521 2.521 0 0 0-1.526-.49c-.578 0-1.092.163-1.54.49-.448.317-.802.775-1.064 1.372-.261.597-.392 1.316-.392 2.156 0 .84.131 1.563.392 2.17.262.597.616 1.059 1.064 1.386.448.317.962.476 1.54.476Zm5.594.868v-.826a36.347 36.347 0 0 0 1.876-1.582 19.234 19.234 0 0 0 1.582-1.596 7.573 7.573 0 0 0 1.092-1.54c.271-.504.406-.989.406-1.456 0-.345-.06-.667-.182-.966a1.456 1.456 0 0 0-.56-.714c-.261-.187-.616-.28-1.064-.28-.429 0-.788.098-1.078.294a1.796 1.796 0 0 0-.658.756c-.14.317-.21.658-.21 1.022h-1.134c0-.644.136-1.195.406-1.652.271-.467.64-.821 1.106-1.064a3.375 3.375 0 0 1 1.582-.364c.868 0 1.578.247 2.128.742.56.485.84 1.213.84 2.184 0 .579-.144 1.153-.434 1.722a8.853 8.853 0 0 1-1.106 1.638 15.161 15.161 0 0 1-1.442 1.47c-.504.457-.975.868-1.414 1.232h4.732v.98h-6.468Zm11.218.168c-.625 0-1.19-.112-1.694-.336a2.92 2.92 0 0 1-1.218-1.036c-.298-.457-.457-1.027-.476-1.708h1.19c.01.56.206 1.045.588 1.456.383.401.92.602 1.61.602.691 0 1.209-.191 1.554-.574.355-.383.532-.845.532-1.386 0-.457-.112-.831-.336-1.12a1.89 1.89 0 0 0-.882-.644 3.327 3.327 0 0 0-1.204-.21h-.728v-.994h.728c.635 0 1.13-.145 1.484-.434.364-.289.546-.695.546-1.218 0-.439-.144-.798-.434-1.078-.28-.289-.7-.434-1.26-.434-.541 0-.975.163-1.302.49-.326.317-.508.719-.546 1.204h-1.19a2.955 2.955 0 0 1 .42-1.414 2.629 2.629 0 0 1 1.064-.952c.448-.233.966-.35 1.554-.35.635 0 1.162.112 1.582.336.43.224.752.523.966.896.224.373.336.784.336 1.232 0 .495-.135.947-.406 1.358-.27.401-.676.672-1.218.812a2.59 2.59 0 0 1 1.442.826c.383.429.574.994.574 1.694 0 .541-.126 1.041-.378 1.498a2.694 2.694 0 0 1-1.092 1.078c-.485.271-1.087.406-1.806.406Z" fill="#868E96"/><path d="M471.6 508.064v-1.424h6.512v1.424H471.6ZM482.417 512v-11.2h3.856c.886 0 1.611.149 2.176.448.576.299 1.003.704 1.28 1.216.278.501.416 1.061.416 1.68 0 .693-.186 1.323-.56 1.888-.362.565-.933.971-1.712 1.216l2.384 4.752h-1.968l-2.176-4.512h-2V512h-1.696Zm1.696-5.792h2.064c.768 0 1.328-.187 1.68-.56.363-.373.544-.859.544-1.456s-.176-1.072-.528-1.424c-.352-.363-.922-.544-1.712-.544h-2.048v3.984Zm10.563 7.184v-1.232c-1.046-.117-1.883-.485-2.512-1.104-.63-.619-.95-1.429-.96-2.432h1.792c.01.501.16.944.448 1.328.288.373.698.624 1.232.752v-3.856a3.463 3.463 0 0 1-.272-.08 8.328 8.328 0 0 0-.272-.096c-.864-.288-1.515-.661-1.952-1.12-.427-.459-.64-1.061-.64-1.808-.011-.875.272-1.589.848-2.144.576-.555 1.338-.88 2.288-.976v-1.28h1.088v1.296c.928.107 1.674.443 2.24 1.008.565.565.853 1.275.864 2.128h-1.792a1.756 1.756 0 0 0-.352-.992c-.214-.32-.534-.539-.96-.656v3.424l.256.096c.085.021.17.048.256.08.554.181 1.05.4 1.488.656.437.256.784.592 1.04 1.008.266.416.4.944.4 1.584 0 .533-.128 1.035-.384 1.504-.256.459-.64.843-1.152 1.152-.512.309-1.147.491-1.904.544v1.216h-1.088ZM493.3 503.6c0 .427.122.757.368.992.245.224.581.421 1.008.592v-3.104a1.778 1.778 0 0 0-.992.512c-.256.256-.384.592-.384 1.008Zm4.112 5.488c0-.523-.155-.917-.464-1.184-.31-.277-.704-.507-1.184-.688v3.52c.522-.064.928-.245 1.216-.544a1.53 1.53 0 0 0 .432-1.104Zm7.829 2.912v-9.28l-1.808.416v-1.248l2.48-1.088h1.088V512h-1.76Zm3.312 0v-1.216a50.22 50.22 0 0 0 2.08-1.744 22.85 22.85 0 0 0 1.76-1.728c.522-.576.933-1.136 1.232-1.68.298-.555.448-1.088.448-1.6 0-.341-.059-.661-.176-.96a1.526 1.526 0 0 0-.576-.736c-.267-.192-.624-.288-1.072-.288-.672 0-1.179.213-1.52.64-.331.427-.491.939-.48 1.536h-1.648c.01-.789.176-1.451.496-1.984.33-.533.768-.939 1.312-1.216.554-.277 1.178-.416 1.872-.416 1.056 0 1.898.299 2.528.896.64.587.96 1.408.96 2.464 0 .629-.155 1.253-.464 1.872a8.43 8.43 0 0 1-1.184 1.792c-.48.565-.998 1.099-1.552 1.6-.555.501-1.083.955-1.584 1.36h5.12V512h-7.552Zm12.464.192a4.986 4.986 0 0 1-1.984-.384 3.281 3.281 0 0 1-1.408-1.2c-.352-.533-.539-1.2-.56-2h1.68c.021.597.224 1.104.608 1.52.395.405.949.608 1.664.608.683 0 1.205-.187 1.568-.56.363-.384.544-.859.544-1.424 0-.683-.245-1.189-.736-1.52-.48-.331-1.072-.496-1.776-.496h-.832v-1.408h.848c.629 0 1.136-.149 1.52-.448.395-.299.592-.72.592-1.264 0-.459-.155-.832-.464-1.12-.299-.288-.725-.432-1.28-.432-.576 0-1.029.171-1.36.512-.331.331-.512.747-.544 1.248h-1.68c.021-.651.181-1.216.48-1.696.309-.48.731-.853 1.264-1.12.533-.267 1.147-.4 1.84-.4.747 0 1.371.133 1.872.4.512.256.896.608 1.152 1.056.267.437.4.917.4 1.44 0 .597-.165 1.12-.496 1.568a2.362 2.362 0 0 1-1.328.896c.64.139 1.168.453 1.584.944.416.48.624 1.104.624 1.872a3.49 3.49 0 0 1-.432 1.712c-.288.512-.715.923-1.28 1.232-.565.309-1.259.464-2.08.464Zm4.377 1.696.928-3.776h1.68l-1.472 3.776h-1.136Zm8.253-1.696c-1.013 0-1.888-.24-2.624-.72-.725-.491-1.285-1.168-1.68-2.032-.384-.875-.576-1.888-.576-3.04 0-1.152.192-2.16.576-3.024.395-.875.955-1.552 1.68-2.032.736-.491 1.611-.736 2.624-.736 1.014 0 1.883.245 2.608.736.726.48 1.28 1.157 1.664 2.032.395.864.592 1.872.592 3.024s-.197 2.165-.592 3.04c-.384.864-.938 1.541-1.664 2.032-.725.48-1.594.72-2.608.72Zm0-1.52c.608 0 1.147-.171 1.616-.512.48-.341.854-.832 1.12-1.472.267-.64.4-1.403.4-2.288 0-.885-.133-1.648-.4-2.288-.266-.64-.64-1.131-1.12-1.472a2.678 2.678 0 0 0-1.616-.512c-.618 0-1.162.171-1.632.512-.469.341-.837.832-1.104 1.472-.266.64-.4 1.403-.4 2.288 0 .885.134 1.648.4 2.288.267.64.635 1.131 1.104 1.472.47.341 1.014.512 1.632.512Zm10.735 1.52c-1.014 0-1.888-.24-2.624-.72-.726-.491-1.286-1.168-1.68-2.032-.384-.875-.576-1.888-.576-3.04 0-1.152.192-2.16.576-3.024.394-.875.954-1.552 1.68-2.032.736-.491 1.61-.736 2.624-.736 1.013 0 1.882.245 2.608.736.725.48 1.28 1.157 1.664 2.032.394.864.592 1.872.592 3.024s-.198 2.165-.592 3.04c-.384.864-.939 1.541-1.664 2.032-.726.48-1.595.72-2.608.72Zm0-1.52a2.68 2.68 0 0 0 1.616-.512c.48-.341.853-.832 1.12-1.472.266-.64.4-1.403.4-2.288 0-.885-.134-1.648-.4-2.288-.267-.64-.64-1.131-1.12-1.472a2.68 2.68 0 0 0-1.616-.512c-.619 0-1.163.171-1.632.512-.47.341-.838.832-1.104 1.472-.267.64-.4 1.403-.4 2.288 0 .885.133 1.648.4 2.288.266.64.634 1.131 1.104 1.472a2.702 2.702 0 0 0 1.632.512Z" fill="#E03131"/><rect x="24" y="561" width="542" height="88" rx="16" fill="#fff"/><rect x="41" y="584" width="42" height="42" rx="21" fill="#F3F0FF"/><rect x="41" y="584" width="42" height="42" rx="21" stroke="#fff" stroke-width="2"/><path d="m56.857 601.246.013 1.133a4.145 4.145 0 0 0-2.527 3.844 4.171 4.171 0 0 0 4.177 4.167h6.97a4.17 4.17 0 0 0 4.168-4.167 4.174 4.174 0 0 0-2.54-3.849l.034-1.09c0-1.554-.607-3.092-1.804-4.081A5.24 5.24 0 0 0 62 596a5.23 5.23 0 0 0-3.717 1.544c-.965.969-1.426 2.334-1.426 3.702ZM59.89 605.381l2.11 2.11M62 605.97l2.11-2.111M62 614.001v-11.388" stroke="#845EF7" stroke-width="1.5" stroke-linecap="round" stroke-linejoin="round"/><path d="M102.16 599.692c-1.131 0-2.101-.24-2.912-.72a4.924 4.924 0 0 1-1.872-2.032c-.437-.875-.656-1.883-.656-3.024s.219-2.149.656-3.024a4.9 4.9 0 0 1 1.872-2.048c.811-.491 1.781-.736 2.912-.736 1.344 0 2.443.336 3.296 1.008.864.661 1.403 1.595 1.616 2.8h-2.256c-.139-.608-.437-1.083-.896-1.424-.448-.352-1.045-.528-1.792-.528-1.035 0-1.845.352-2.432 1.056-.587.704-.88 1.669-.88 2.896 0 1.227.293 2.192.88 2.896.587.693 1.397 1.04 2.432 1.04.747 0 1.344-.16 1.792-.48.459-.331.757-.784.896-1.36h2.256c-.213 1.152-.752 2.053-1.616 2.704-.853.651-1.952.976-3.296.976Zm7.281-9.36c-.373 0-.683-.112-.928-.336a1.122 1.122 0 0 1-.352-.848c0-.341.117-.619.352-.832.245-.224.555-.336.928-.336s.677.112.912.336c.245.213.368.491.368.832a1.1 1.1 0 0 1-.368.848c-.235.224-.539.336-.912.336Zm-1.024 9.168v-7.936h2.048v7.936h-2.048Zm3.686 0v-7.936h1.808l.16 1.344a2.802 2.802 0 0 1 1.056-1.12c.469-.277 1.018-.416 1.648-.416.981 0 1.744.309 2.287.928.544.619.816 1.525.816 2.72v4.48h-2.047v-4.288c0-.683-.139-1.205-.416-1.568-.278-.363-.71-.544-1.296-.544-.576 0-1.051.203-1.424.608-.363.405-.544.971-.544 1.696v4.096h-2.048Zm13.09.192c-.8 0-1.509-.171-2.128-.512a3.7 3.7 0 0 1-1.456-1.44c-.352-.619-.528-1.333-.528-2.144 0-.821.171-1.552.512-2.192a3.791 3.791 0 0 1 1.44-1.488c.619-.363 1.344-.544 2.176-.544.779 0 1.467.171 2.064.512a3.609 3.609 0 0 1 1.392 1.408c.341.587.512 1.243.512 1.968 0 .117-.005.24-.016.368 0 .128-.005.261-.016.4h-6.032c.043.619.256 1.104.64 1.456.395.352.869.528 1.424.528.416 0 .763-.091 1.04-.272a1.77 1.77 0 0 0 .64-.736h2.08c-.149.501-.4.96-.752 1.376a3.62 3.62 0 0 1-1.28.96c-.501.235-1.072.352-1.712.352Zm.016-6.656c-.501 0-.944.144-1.328.432-.384.277-.629.704-.736 1.28h3.952c-.032-.523-.224-.939-.576-1.248-.352-.309-.789-.464-1.312-.464Zm5.19 6.464v-7.936h1.808l.176 1.072a2.768 2.768 0 0 1 1.008-.912c.427-.235.918-.352 1.472-.352 1.227 0 2.096.475 2.608 1.424a3.102 3.102 0 0 1 1.152-1.04 3.408 3.408 0 0 1 1.6-.384c1.035 0 1.83.309 2.384.928.555.619.832 1.525.832 2.72v4.48h-2.048v-4.288c0-.683-.133-1.205-.4-1.568-.256-.363-.656-.544-1.2-.544-.554 0-1.002.203-1.344.608-.33.405-.496.971-.496 1.696v4.096h-2.048v-4.288c0-.683-.133-1.205-.4-1.568-.266-.363-.677-.544-1.232-.544-.544 0-.986.203-1.328.608-.33.405-.496.971-.496 1.696v4.096h-2.048Zm17.221.192c-.683 0-1.243-.107-1.68-.32-.438-.224-.763-.517-.976-.88a2.319 2.319 0 0 1-.32-1.2c0-.736.288-1.333.864-1.792.576-.459 1.44-.688 2.592-.688h2.016v-.192c0-.544-.155-.944-.464-1.2-.31-.256-.694-.384-1.152-.384-.416 0-.779.101-1.088.304-.31.192-.502.48-.576.864h-2a2.82 2.82 0 0 1 .576-1.504 3.257 3.257 0 0 1 1.312-.976c.533-.235 1.13-.352 1.792-.352 1.13 0 2.021.283 2.672.848.65.565.976 1.365.976 2.4v4.88h-1.744l-.192-1.28a2.938 2.938 0 0 1-.992 1.056c-.416.277-.955.416-1.616.416Zm.464-1.6c.586 0 1.04-.192 1.36-.576.33-.384.538-.859.624-1.424h-1.744c-.544 0-.934.101-1.168.304a.893.893 0 0 0-.352.72c0 .309.117.549.352.72.234.171.544.256.928.256Z" fill="#343A40"/><path d="M100.858 621.668c-.868 0-1.62-.21-2.254-.63-.625-.429-1.106-1.022-1.442-1.778-.336-.765-.504-1.652-.504-2.66 0-1.008.168-1.89.504-2.646.336-.765.817-1.358 1.442-1.778.635-.429 1.386-.644 2.254-.644.868 0 1.615.215 2.24.644.625.42 1.106 1.013 1.442 1.778.336.756.504 1.638.504 2.646s-.168 1.895-.504 2.66c-.336.756-.817 1.349-1.442 1.778-.625.42-1.372.63-2.24.63Zm0-1.036c.569 0 1.078-.159 1.526-.476.457-.327.812-.789 1.064-1.386.261-.607.392-1.33.392-2.17 0-.84-.131-1.559-.392-2.156-.252-.597-.607-1.055-1.064-1.372a2.523 2.523 0 0 0-1.526-.49c-.579 0-1.092.163-1.54.49-.448.317-.803.775-1.064 1.372-.261.597-.392 1.316-.392 2.156 0 .84.13 1.563.392 2.17.261.597.616 1.059 1.064 1.386a2.6 2.6 0 0 0 1.54.476Zm10.323.868v-2.1h-4.97v-.91l4.76-6.79h1.372v6.664h1.456v1.036h-1.456v2.1h-1.162Zm-3.668-3.136h3.724v-5.362l-3.724 5.362Zm7.063 4.466 3.514-12.026h1.162l-3.514 12.026h-1.162Zm9.661-1.162c-.868 0-1.619-.21-2.254-.63-.625-.429-1.106-1.022-1.442-1.778-.336-.765-.504-1.652-.504-2.66 0-1.008.168-1.89.504-2.646.336-.765.817-1.358 1.442-1.778.635-.429 1.386-.644 2.254-.644.868 0 1.615.215 2.24.644.625.42 1.106 1.013 1.442 1.778.336.756.504 1.638.504 2.646s-.168 1.895-.504 2.66c-.336.756-.817 1.349-1.442 1.778-.625.42-1.372.63-2.24.63Zm0-1.036c.569 0 1.078-.159 1.526-.476.457-.327.812-.789 1.064-1.386.261-.607.392-1.33.392-2.17 0-.84-.131-1.559-.392-2.156-.252-.597-.607-1.055-1.064-1.372a2.523 2.523 0 0 0-1.526-.49c-.579 0-1.092.163-1.54.49-.448.317-.803.775-1.064 1.372-.261.597-.392 1.316-.392 2.156 0 .84.131 1.563.392 2.17.261.597.616 1.059 1.064 1.386a2.6 2.6 0 0 0 1.54.476Zm9.413 1.036c-.709 0-1.307-.131-1.792-.392a3.36 3.36 0 0 1-1.176-1.078 5.023 5.023 0 0 1-.644-1.498 7.471 7.471 0 0 1-.196-1.708c0-1.083.149-2.03.448-2.842.299-.821.728-1.461 1.288-1.918.569-.467 1.255-.7 2.058-.7.616 0 1.143.121 1.582.364.439.243.784.569 1.036.98.261.401.425.849.49 1.344h-1.092c-.103-.532-.331-.943-.686-1.232-.355-.289-.803-.434-1.344-.434-.737 0-1.358.35-1.862 1.05-.495.691-.761 1.773-.798 3.248.224-.439.579-.817 1.064-1.134.495-.327 1.087-.49 1.778-.49.56 0 1.083.131 1.568.392.495.261.896.63 1.204 1.106.308.467.462 1.017.462 1.652 0 .551-.135 1.078-.406 1.582a3.235 3.235 0 0 1-1.176 1.232c-.504.317-1.106.476-1.806.476Zm-.084-1.036c.439 0 .831-.093 1.176-.28.345-.187.616-.443.812-.77.196-.336.294-.719.294-1.148 0-.663-.219-1.19-.658-1.582-.429-.401-.971-.602-1.624-.602-.439 0-.831.103-1.176.308a2.258 2.258 0 0 0-.826.798 2.13 2.13 0 0 0-.294 1.092c0 .42.098.798.294 1.134.205.327.481.583.826.77.345.187.737.28 1.176.28Zm4.183 2.198 3.514-12.026h1.162l-3.514 12.026h-1.162Zm5.959-1.33v-.826a36.347 36.347 0 0 0 1.876-1.582 19.234 19.234 0 0 0 1.582-1.596 7.573 7.573 0 0 0 1.092-1.54c.271-.504.406-.989.406-1.456 0-.345-.06-.667-.182-.966a1.456 1.456 0 0 0-.56-.714c-.261-.187-.616-.28-1.064-.28-.429 0-.788.098-1.078.294a1.796 1.796 0 0 0-.658.756c-.14.317-.21.658-.21 1.022h-1.134c0-.644.136-1.195.406-1.652.271-.467.64-.821 1.106-1.064a3.375 3.375 0 0 1 1.582-.364c.868 0 1.578.247 2.128.742.56.485.84 1.213.84 2.184 0 .579-.144 1.153-.434 1.722a8.853 8.853 0 0 1-1.106 1.638 15.161 15.161 0 0 1-1.442 1.47c-.504.457-.975.868-1.414 1.232h4.732v.98h-6.468Zm11.851.168c-.868 0-1.619-.21-2.254-.63-.625-.429-1.106-1.022-1.442-1.778-.336-.765-.504-1.652-.504-2.66 0-1.008.168-1.89.504-2.646.336-.765.817-1.358 1.442-1.778.635-.429 1.386-.644 2.254-.644.868 0 1.615.215 2.24.644.626.42 1.106 1.013 1.442 1.778.336.756.504 1.638.504 2.646s-.168 1.895-.504 2.66c-.336.756-.816 1.349-1.442 1.778-.625.42-1.372.63-2.24.63Zm0-1.036c.57 0 1.078-.159 1.526-.476.458-.327.812-.789 1.064-1.386.262-.607.392-1.33.392-2.17 0-.84-.13-1.559-.392-2.156-.252-.597-.606-1.055-1.064-1.372a2.521 2.521 0 0 0-1.526-.49c-.578 0-1.092.163-1.54.49-.448.317-.802.775-1.064 1.372-.261.597-.392 1.316-.392 2.156 0 .84.131 1.563.392 2.17.262.597.616 1.059 1.064 1.386.448.317.962.476 1.54.476Zm5.594.868v-.826a36.347 36.347 0 0 0 1.876-1.582 19.234 19.234 0 0 0 1.582-1.596 7.573 7.573 0 0 0 1.092-1.54c.271-.504.406-.989.406-1.456 0-.345-.06-.667-.182-.966a1.456 1.456 0 0 0-.56-.714c-.261-.187-.616-.28-1.064-.28-.429 0-.788.098-1.078.294a1.796 1.796 0 0 0-.658.756c-.14.317-.21.658-.21 1.022h-1.134c0-.644.136-1.195.406-1.652.271-.467.64-.821 1.106-1.064a3.375 3.375 0 0 1 1.582-.364c.868 0 1.578.247 2.128.742.56.485.84 1.213.84 2.184 0 .579-.144 1.153-.434 1.722a8.853 8.853 0 0 1-1.106 1.638 15.161 15.161 0 0 1-1.442 1.47c-.504.457-.975.868-1.414 1.232h4.732v.98h-6.468Zm11.218.168c-.625 0-1.19-.112-1.694-.336a2.92 2.92 0 0 1-1.218-1.036c-.298-.457-.457-1.027-.476-1.708h1.19c.01.56.206 1.045.588 1.456.383.401.92.602 1.61.602.691 0 1.209-.191 1.554-.574.355-.383.532-.845.532-1.386 0-.457-.112-.831-.336-1.12a1.89 1.89 0 0 0-.882-.644 3.327 3.327 0 0 0-1.204-.21h-.728v-.994h.728c.635 0 1.13-.145 1.484-.434.364-.289.546-.695.546-1.218 0-.439-.144-.798-.434-1.078-.28-.289-.7-.434-1.26-.434-.541 0-.975.163-1.302.49-.326.317-.508.719-.546 1.204h-1.19a2.955 2.955 0 0 1 .42-1.414 2.629 2.629 0 0 1 1.064-.952c.448-.233.966-.35 1.554-.35.635 0 1.162.112 1.582.336.43.224.752.523.966.896.224.373.336.784.336 1.232 0 .495-.135.947-.406 1.358-.27.401-.676.672-1.218.812a2.59 2.59 0 0 1 1.442.826c.383.429.574.994.574 1.694 0 .541-.126 1.041-.378 1.498a2.694 2.694 0 0 1-1.092 1.078c-.485.271-1.087.406-1.806.406Z" fill="#868E96"/><path d="M471.6 606.064v-1.424h6.512v1.424H471.6ZM482.417 610v-11.2h3.856c.886 0 1.611.149 2.176.448.576.299 1.003.704 1.28 1.216.278.501.416 1.061.416 1.68 0 .693-.186 1.323-.56 1.888-.362.565-.933.971-1.712 1.216l2.384 4.752h-1.968l-2.176-4.512h-2V610h-1.696Zm1.696-5.792h2.064c.768 0 1.328-.187 1.68-.56.363-.373.544-.859.544-1.456s-.176-1.072-.528-1.424c-.352-.363-.922-.544-1.712-.544h-2.048v3.984Zm10.563 7.184v-1.232c-1.046-.117-1.883-.485-2.512-1.104-.63-.619-.95-1.429-.96-2.432h1.792c.01.501.16.944.448 1.328.288.373.698.624 1.232.752v-3.856a3.463 3.463 0 0 1-.272-.08 8.328 8.328 0 0 0-.272-.096c-.864-.288-1.515-.661-1.952-1.12-.427-.459-.64-1.061-.64-1.808-.011-.875.272-1.589.848-2.144.576-.555 1.338-.88 2.288-.976v-1.28h1.088v1.296c.928.107 1.674.443 2.24 1.008.565.565.853 1.275.864 2.128h-1.792a1.756 1.756 0 0 0-.352-.992c-.214-.32-.534-.539-.96-.656v3.424l.256.096c.085.021.17.048.256.08.554.181 1.05.4 1.488.656.437.256.784.592 1.04 1.008.266.416.4.944.4 1.584 0 .533-.128 1.035-.384 1.504-.256.459-.64.843-1.152 1.152-.512.309-1.147.491-1.904.544v1.216h-1.088ZM493.3 601.6c0 .427.122.757.368.992.245.224.581.421 1.008.592v-3.104a1.778 1.778 0 0 0-.992.512c-.256.256-.384.592-.384 1.008Zm4.112 5.488c0-.523-.155-.917-.464-1.184-.31-.277-.704-.507-1.184-.688v3.52c.522-.064.928-.245 1.216-.544a1.53 1.53 0 0 0 .432-1.104Zm7.829 2.912v-9.28l-1.808.416v-1.248l2.48-1.088h1.088V610h-1.76Zm3.312 0v-1.216a50.22 50.22 0 0 0 2.08-1.744 22.85 22.85 0 0 0 1.76-1.728c.522-.576.933-1.136 1.232-1.68.298-.555.448-1.088.448-1.6 0-.341-.059-.661-.176-.96a1.526 1.526 0 0 0-.576-.736c-.267-.192-.624-.288-1.072-.288-.672 0-1.179.213-1.52.64-.331.427-.491.939-.48 1.536h-1.648c.01-.789.176-1.451.496-1.984.33-.533.768-.939 1.312-1.216.554-.277 1.178-.416 1.872-.416 1.056 0 1.898.299 2.528.896.64.587.96 1.408.96 2.464 0 .629-.155 1.253-.464 1.872a8.43 8.43 0 0 1-1.184 1.792c-.48.565-.998 1.099-1.552 1.6-.555.501-1.083.955-1.584 1.36h5.12V610h-7.552Zm12.464.192a4.986 4.986 0 0 1-1.984-.384 3.281 3.281 0 0 1-1.408-1.2c-.352-.533-.539-1.2-.56-2h1.68c.021.597.224 1.104.608 1.52.395.405.949.608 1.664.608.683 0 1.205-.187 1.568-.56.363-.384.544-.859.544-1.424 0-.683-.245-1.189-.736-1.52-.48-.331-1.072-.496-1.776-.496h-.832v-1.408h.848c.629 0 1.136-.149 1.52-.448.395-.299.592-.72.592-1.264 0-.459-.155-.832-.464-1.12-.299-.288-.725-.432-1.28-.432-.576 0-1.029.171-1.36.512-.331.331-.512.747-.544 1.248h-1.68c.021-.651.181-1.216.48-1.696.309-.48.731-.853 1.264-1.12.533-.267 1.147-.4 1.84-.4.747 0 1.371.133 1.872.4.512.256.896.608 1.152 1.056.267.437.4.917.4 1.44 0 .597-.165 1.12-.496 1.568a2.362 2.362 0 0 1-1.328.896c.64.139 1.168.453 1.584.944.416.48.624 1.104.624 1.872a3.49 3.49 0 0 1-.432 1.712c-.288.512-.715.923-1.28 1.232-.565.309-1.259.464-2.08.464Zm4.377 1.696.928-3.776h1.68l-1.472 3.776h-1.136Zm8.253-1.696c-1.013 0-1.888-.24-2.624-.72-.725-.491-1.285-1.168-1.68-2.032-.384-.875-.576-1.888-.576-3.04 0-1.152.192-2.16.576-3.024.395-.875.955-1.552 1.68-2.032.736-.491 1.611-.736 2.624-.736 1.014 0 1.883.245 2.608.736.726.48 1.28 1.157 1.664 2.032.395.864.592 1.872.592 3.024s-.197 2.165-.592 3.04c-.384.864-.938 1.541-1.664 2.032-.725.48-1.594.72-2.608.72Zm0-1.52c.608 0 1.147-.171 1.616-.512.48-.341.854-.832 1.12-1.472.267-.64.4-1.403.4-2.288 0-.885-.133-1.648-.4-2.288-.266-.64-.64-1.131-1.12-1.472a2.678 2.678 0 0 0-1.616-.512c-.618 0-1.162.171-1.632.512-.469.341-.837.832-1.104 1.472-.266.64-.4 1.403-.4 2.288 0 .885.134 1.648.4 2.288.267.64.635 1.131 1.104 1.472.47.341 1.014.512 1.632.512Zm10.735 1.52c-1.014 0-1.888-.24-2.624-.72-.726-.491-1.286-1.168-1.68-2.032-.384-.875-.576-1.888-.576-3.04 0-1.152.192-2.16.576-3.024.394-.875.954-1.552 1.68-2.032.736-.491 1.61-.736 2.624-.736 1.013 0 1.882.245 2.608.736.725.48 1.28 1.157 1.664 2.032.394.864.592 1.872.592 3.024s-.198 2.165-.592 3.04c-.384.864-.939 1.541-1.664 2.032-.726.48-1.595.72-2.608.72Zm0-1.52a2.68 2.68 0 0 0 1.616-.512c.48-.341.853-.832 1.12-1.472.266-.64.4-1.403.4-2.288 0-.885-.134-1.648-.4-2.288-.267-.64-.64-1.131-1.12-1.472a2.68 2.68 0 0 0-1.616-.512c-.619 0-1.163.171-1.632.512-.47.341-.838.832-1.104 1.472-.267.64-.4 1.403-.4 2.288 0 .885.133 1.648.4 2.288.266.64.634 1.131 1.104 1.472a2.702 2.702 0 0 0 1.632.512Z" fill="#E03131"/></g></g><defs><clipPath id="a"><rect width="656" height="960" rx="32" fill="#fff"/></clipPath><clipPath id="b"><rect width="656" height="960" rx="32" fill="#fff"/></clipPath></defs></svg>